<svg width="68" height="68" viewBox="0 0 68 68" fill="none" xmlns="http://www.w3.org/2000/svg">
<path d="M21.5122 6.94312C20.353 6.94312 19.2413 7.42279 18.4216 8.2766C17.602 9.13044 17.1415 10.2885 17.1415 11.496H19.639C19.639 10.9785 19.8364 10.4822 20.1877 10.1162C20.539 9.75031 21.0154 9.54474 21.5122 9.54474C22.009 9.54474 22.4854 9.75031 22.8367 10.1162C23.1881 10.4822 23.3854 10.9785 23.3854 11.496C23.3854 12.0135 23.1881 12.5098 22.8367 12.8757C22.4854 13.2416 22.009 13.4472 21.5122 13.4472C20.8254 13.4472 20.2634 14.0325 20.2634 14.748V17.0244L9.52391 25.4147C9.31423 25.5785 9.15934 25.8068 9.08119 26.0674C9.00304 26.3281 9.0056 26.6077 9.08848 26.8666C9.17135 27.1257 9.33036 27.3509 9.54299 27.5105C9.75562 27.6702 10.0111 27.7561 10.2732 27.7561H32.7512C33.0133 27.7561 33.2688 27.6702 33.4813 27.5105C33.6941 27.3509 33.8531 27.1257 33.9359 26.8666C34.0187 26.6077 34.0214 26.3281 33.9432 26.0674C33.8651 25.8068 33.7101 25.5785 33.5005 25.4147L22.761 17.0244V15.8537C23.6622 15.5738 24.4527 14.9986 25.015 14.2136C25.5774 13.4286 25.8819 12.4755 25.8829 11.496C25.8829 10.2885 25.4225 9.13044 24.6027 8.2766C23.7831 7.42279 22.6715 6.94312 21.5122 6.94312ZM21.5122 19.3008L29.0049 25.1545H14.0195L21.5122 19.3008Z" fill="white"/>
<path d="M66 2H2V66H66V2Z" stroke="white" stroke-width="2.5"/>
<path d="M10.1859 58.0559L58.0559 10.1859" stroke="white" stroke-width="2.5"/>
<path d="M37.1053 40.9932H39.9276L44.573 54.1303L47.7199 45.9633L45.7968 40.9932H48.1945L53.2146 53.8556L57.6602 40.9932H60.2577L53.1396 59.7748L48.9188 49.0103L44.2983 59.7998L37.1053 40.9932Z" fill="white"/>
</svg>
