<svg width="34" height="34" viewBox="0 0 34 34" fill="none" xmlns="http://www.w3.org/2000/svg">
<path d="M10.7561 3.47156C10.1765 3.47156 9.62064 3.7114 9.21081 4.1383C8.80097 4.56522 8.57073 5.14424 8.57073 5.74798H9.81951C9.81951 5.48923 9.91818 5.24108 10.0938 5.05812C10.2695 4.87516 10.5077 4.77237 10.7561 4.77237C11.0045 4.77237 11.2427 4.87516 11.4184 5.05812C11.594 5.24108 11.6927 5.48923 11.6927 5.74798C11.6927 6.00673 11.594 6.25488 11.4184 6.43784C11.2427 6.6208 11.0045 6.72359 10.7561 6.72359C10.4127 6.72359 10.1317 7.01627 10.1317 7.374V8.51221L4.76195 12.7073C4.65711 12.7892 4.57967 12.9034 4.54059 13.0337C4.50152 13.1641 4.5028 13.3038 4.54423 13.4333C4.58567 13.5628 4.66518 13.6754 4.77149 13.7553C4.8778 13.8351 5.00553 13.8781 5.13658 13.8781H16.3756C16.5066 13.8781 16.6344 13.8351 16.7407 13.7553C16.847 13.6754 16.9265 13.5628 16.9679 13.4333C17.0094 13.3038 17.0107 13.1641 16.9716 13.0337C16.9326 12.9034 16.855 12.7892 16.7502 12.7073L11.3805 8.51221V7.92684C11.8311 7.78691 12.2263 7.49932 12.5075 7.10681C12.7887 6.71429 12.9409 6.23775 12.9415 5.74798C12.9415 5.14424 12.7113 4.56522 12.3014 4.1383C11.8915 3.7114 11.3357 3.47156 10.7561 3.47156ZM10.7561 9.65042L14.5024 12.5772H7.00975L10.7561 9.65042Z" fill="white"/>
<path d="M33 1H1V33H33V1Z" stroke="white" stroke-width="1.25"/>
<path d="M5.09294 29.0279L29.0279 5.0929" stroke="white" stroke-width="1.25"/>
<path d="M18.5527 20.4966H19.9638L22.2865 27.0652L23.86 22.9817L22.8984 20.4966H24.0972L26.6073 26.9278L28.8301 20.4966H30.1289L26.5698 29.8874L24.4594 24.5052L22.1491 29.8999L18.5527 20.4966Z" fill="white"/>
</svg>
