<svg width="368" height="68" viewBox="0 0 368 68" fill="none" xmlns="http://www.w3.org/2000/svg">
<path d="M21.5122 6.94312C20.353 6.94312 19.2413 7.42279 18.4216 8.2766C17.6019 9.13044 17.1415 10.2885 17.1415 11.496H19.639C19.639 10.9785 19.8364 10.4822 20.1877 10.1162C20.539 9.75031 21.0154 9.54474 21.5122 9.54474C22.009 9.54474 22.4854 9.75031 22.8367 10.1162C23.1881 10.4822 23.3854 10.9785 23.3854 11.496C23.3854 12.0135 23.1881 12.5098 22.8367 12.8757C22.4854 13.2416 22.009 13.4472 21.5122 13.4472C20.8254 13.4472 20.2634 14.0325 20.2634 14.748V17.0244L9.5239 25.4147C9.31423 25.5785 9.15934 25.8068 9.08118 26.0674C9.00303 26.3281 9.00559 26.6077 9.08847 26.8666C9.17135 27.1257 9.33036 27.3509 9.54298 27.5105C9.75561 27.6702 10.0111 27.7561 10.2732 27.7561H32.7512C33.0133 27.7561 33.2688 27.6702 33.4813 27.5105C33.694 27.3509 33.8531 27.1257 33.9359 26.8666C34.0187 26.6077 34.0214 26.3281 33.9432 26.0674C33.8651 25.8068 33.7101 25.5785 33.5005 25.4147L22.761 17.0244V15.8537C23.6622 15.5738 24.4527 14.9986 25.015 14.2136C25.5774 13.4286 25.8819 12.4755 25.8829 11.496C25.8829 10.2885 25.4225 9.13044 24.6027 8.2766C23.7831 7.42279 22.6715 6.94312 21.5122 6.94312ZM21.5122 19.3008L29.0049 25.1545H14.0195L21.5122 19.3008Z" fill="white"/>
<path d="M66 2H2V66H66V2Z" stroke="white" stroke-width="2.5"/>
<path d="M10.1859 58.0559L58.0559 10.1859" stroke="white" stroke-width="2.5"/>
<path d="M37.1053 40.9932H39.9276L44.573 54.1303L47.7199 45.9633L45.7968 40.9932H48.1945L53.2146 53.8556L57.6602 40.9932H60.2577L53.1396 59.7748L48.9188 49.0103L44.2983 59.7998L37.1053 40.9932Z" fill="white"/>
<path d="M76.448 17.296H99.488V21.76H90.176V52H85.52V21.76H76.448V17.296ZM105.779 52V14.848H110.147V36.736L110.051 35.92C110.723 34.608 111.747 33.52 113.123 32.656C114.531 31.792 116.179 31.36 118.067 31.36C119.955 31.36 121.491 31.92 122.675 33.04C123.891 34.128 124.515 35.552 124.547 37.312V52H120.035V38.896C120.003 37.808 119.683 36.928 119.075 36.256C118.499 35.552 117.587 35.2 116.339 35.2C115.187 35.2 114.147 35.536 113.219 36.208C112.291 36.848 111.555 37.728 111.011 38.848C110.499 39.968 110.243 41.248 110.243 42.688V52H105.779ZM141.526 52.48C139.254 52.48 137.302 52.032 135.67 51.136C134.038 50.208 132.774 48.96 131.878 47.392C131.014 45.792 130.582 43.968 130.582 41.92C130.582 39.968 131.078 38.192 132.07 36.592C133.062 34.992 134.39 33.712 136.054 32.752C137.718 31.792 139.574 31.312 141.622 31.312C144.246 31.312 146.422 32.08 148.15 33.616C149.878 35.152 151.046 37.264 151.654 39.952L135.286 45.712L134.23 43.072L147.67 38.176L146.71 38.8C146.326 37.744 145.686 36.832 144.79 36.064C143.894 35.264 142.726 34.864 141.286 34.864C140.07 34.864 138.982 35.168 138.022 35.776C137.062 36.352 136.31 37.152 135.766 38.176C135.222 39.2 134.95 40.368 134.95 41.68C134.95 43.056 135.238 44.272 135.814 45.328C136.39 46.352 137.174 47.168 138.166 47.776C139.19 48.352 140.342 48.64 141.622 48.64C142.486 48.64 143.318 48.48 144.118 48.16C144.95 47.84 145.718 47.424 146.422 46.912L148.486 50.224C147.494 50.896 146.374 51.44 145.126 51.856C143.91 52.272 142.71 52.48 141.526 52.48ZM155.327 17.488H160.703L170.111 43.984L169.295 43.648L176.159 25.888L178.319 32.176L169.151 53.584L155.327 17.488ZM171.983 17.488H176.639L186.815 43.6L185.855 43.408L194.831 17.488H199.775L186.143 53.536L171.983 17.488ZM209.425 52.48C207.569 52.48 205.873 52.08 204.337 51.28C202.833 50.48 201.633 49.312 200.737 47.776C199.873 46.208 199.441 44.304 199.441 42.064C199.441 39.856 199.905 37.952 200.833 36.352C201.761 34.72 202.993 33.472 204.529 32.608C206.097 31.744 207.809 31.312 209.665 31.312C211.521 31.312 213.089 31.744 214.369 32.608C215.649 33.44 216.625 34.432 217.297 35.584L217.009 36.352L217.441 32.128H221.569V52H217.105V46.816L217.585 47.968C217.457 48.288 217.169 48.704 216.721 49.216C216.305 49.696 215.729 50.192 214.993 50.704C214.289 51.216 213.473 51.648 212.545 52C211.617 52.32 210.577 52.48 209.425 52.48ZM210.625 48.784C211.745 48.784 212.753 48.576 213.649 48.16C214.545 47.744 215.281 47.168 215.857 46.432C216.465 45.664 216.881 44.752 217.105 43.696V39.808C216.849 38.848 216.401 38.016 215.761 37.312C215.121 36.576 214.353 36.016 213.457 35.632C212.561 35.216 211.569 35.008 210.481 35.008C209.297 35.008 208.209 35.296 207.217 35.872C206.225 36.448 205.425 37.248 204.817 38.272C204.241 39.296 203.953 40.496 203.953 41.872C203.953 43.152 204.257 44.32 204.865 45.376C205.473 46.432 206.289 47.264 207.313 47.872C208.337 48.48 209.441 48.784 210.625 48.784ZM233.278 32.128L233.71 37.888L233.47 37.12C233.982 35.904 234.718 34.88 235.678 34.048C236.67 33.184 237.694 32.528 238.75 32.08C239.838 31.6 240.782 31.36 241.582 31.36L241.342 35.776C239.838 35.68 238.51 35.968 237.358 36.64C236.238 37.312 235.342 38.208 234.67 39.328C234.03 40.448 233.71 41.648 233.71 42.928V52H229.294V32.128H233.278ZM254.561 52.48C252.737 52.48 251.073 52.048 249.569 51.184C248.097 50.288 246.929 49.04 246.065 47.44C245.201 45.808 244.769 43.936 244.769 41.824C244.769 39.616 245.217 37.728 246.113 36.16C247.041 34.592 248.289 33.392 249.857 32.56C251.425 31.728 253.185 31.312 255.137 31.312C256.705 31.312 258.193 31.648 259.601 32.32C261.041 32.992 262.161 33.92 262.961 35.104L262.769 36.688V14.848H267.185V52H262.721V47.056L263.201 48.304C262.273 49.52 261.073 50.528 259.601 51.328C258.129 52.096 256.449 52.48 254.561 52.48ZM255.953 48.688C257.137 48.688 258.193 48.48 259.121 48.064C260.049 47.616 260.817 47.008 261.425 46.24C262.033 45.472 262.465 44.56 262.721 43.504V39.76C262.465 38.8 262.001 37.968 261.329 37.264C260.689 36.528 259.905 35.952 258.977 35.536C258.081 35.088 257.073 34.864 255.953 34.864C254.737 34.864 253.617 35.168 252.593 35.776C251.601 36.352 250.801 37.152 250.193 38.176C249.585 39.2 249.281 40.384 249.281 41.728C249.281 43.04 249.585 44.224 250.193 45.28C250.801 46.304 251.617 47.136 252.641 47.776C253.665 48.384 254.769 48.688 255.953 48.688ZM278.935 32.128L279.367 37.888L279.127 37.12C279.639 35.904 280.375 34.88 281.335 34.048C282.327 33.184 283.351 32.528 284.407 32.08C285.495 31.6 286.439 31.36 287.239 31.36L286.999 35.776C285.495 35.68 284.167 35.968 283.015 36.64C281.895 37.312 280.999 38.208 280.327 39.328C279.687 40.448 279.367 41.648 279.367 42.928V52H274.951V32.128H278.935ZM290.426 41.872C290.426 39.888 290.89 38.096 291.818 36.496C292.778 34.896 294.09 33.632 295.754 32.704C297.418 31.776 299.306 31.312 301.418 31.312C303.594 31.312 305.498 31.776 307.13 32.704C308.762 33.632 310.026 34.896 310.922 36.496C311.818 38.096 312.266 39.888 312.266 41.872C312.266 43.856 311.818 45.664 310.922 47.296C310.026 48.896 308.746 50.16 307.082 51.088C305.45 52.016 303.546 52.48 301.37 52.48C299.258 52.48 297.37 52.048 295.706 51.184C294.074 50.288 292.778 49.056 291.818 47.488C290.89 45.888 290.426 44.016 290.426 41.872ZM294.89 41.92C294.89 43.2 295.178 44.368 295.754 45.424C296.33 46.448 297.098 47.264 298.058 47.872C299.05 48.48 300.138 48.784 301.322 48.784C302.57 48.784 303.674 48.48 304.634 47.872C305.626 47.264 306.394 46.448 306.938 45.424C307.482 44.368 307.754 43.2 307.754 41.92C307.754 40.64 307.482 39.488 306.938 38.464C306.394 37.408 305.626 36.576 304.634 35.968C303.674 35.328 302.57 35.008 301.322 35.008C300.106 35.008 299.002 35.328 298.01 35.968C297.05 36.608 296.282 37.456 295.706 38.512C295.162 39.536 294.89 40.672 294.89 41.92ZM330.406 52.48C328.582 52.48 326.966 52.08 325.558 51.28C324.182 50.48 323.078 49.472 322.246 48.256L322.774 46.864V52H318.31V14.848H322.726V36.688L322.582 35.008C323.382 33.92 324.518 33.04 325.99 32.368C327.494 31.664 329.158 31.312 330.982 31.312C332.774 31.312 334.406 31.744 335.878 32.608C337.35 33.472 338.518 34.688 339.382 36.256C340.278 37.792 340.726 39.632 340.726 41.776C340.726 44.016 340.246 45.936 339.286 47.536C338.358 49.136 337.11 50.368 335.542 51.232C333.974 52.064 332.262 52.48 330.406 52.48ZM329.494 48.688C330.774 48.688 331.926 48.384 332.95 47.776C333.974 47.168 334.774 46.352 335.35 45.328C335.926 44.272 336.214 43.072 336.214 41.728C336.214 40.448 335.91 39.296 335.302 38.272C334.726 37.216 333.926 36.384 332.902 35.776C331.91 35.168 330.774 34.864 329.494 34.864C328.406 34.864 327.398 35.072 326.47 35.488C325.542 35.904 324.758 36.48 324.118 37.216C323.478 37.92 323.03 38.752 322.774 39.712V43.696C323.03 44.656 323.462 45.52 324.07 46.288C324.678 47.024 325.446 47.616 326.374 48.064C327.302 48.48 328.342 48.688 329.494 48.688ZM355.979 52.48C353.707 52.48 351.755 52.032 350.123 51.136C348.491 50.208 347.227 48.96 346.331 47.392C345.467 45.792 345.035 43.968 345.035 41.92C345.035 39.968 345.531 38.192 346.523 36.592C347.515 34.992 348.843 33.712 350.507 32.752C352.171 31.792 354.027 31.312 356.075 31.312C358.699 31.312 360.875 32.08 362.603 33.616C364.331 35.152 365.499 37.264 366.107 39.952L349.739 45.712L348.683 43.072L362.123 38.176L361.163 38.8C360.779 37.744 360.139 36.832 359.243 36.064C358.347 35.264 357.179 34.864 355.739 34.864C354.523 34.864 353.435 35.168 352.475 35.776C351.515 36.352 350.763 37.152 350.219 38.176C349.675 39.2 349.403 40.368 349.403 41.68C349.403 43.056 349.691 44.272 350.267 45.328C350.843 46.352 351.627 47.168 352.619 47.776C353.643 48.352 354.795 48.64 356.075 48.64C356.939 48.64 357.771 48.48 358.571 48.16C359.403 47.84 360.171 47.424 360.875 46.912L362.939 50.224C361.947 50.896 360.827 51.44 359.579 51.856C358.363 52.272 357.163 52.48 355.979 52.48Z" fill="white"/>
</svg>
