<svg width="184" height="34" viewBox="0 0 184 34" fill="none" xmlns="http://www.w3.org/2000/svg">
<path d="M10.7561 3.47156C10.1765 3.47156 9.62064 3.7114 9.21081 4.1383C8.80097 4.56522 8.57073 5.14424 8.57073 5.74798H9.81951C9.81951 5.48923 9.91818 5.24108 10.0938 5.05812C10.2695 4.87516 10.5077 4.77237 10.7561 4.77237C11.0045 4.77237 11.2427 4.87516 11.4184 5.05812C11.594 5.24108 11.6927 5.48923 11.6927 5.74798C11.6927 6.00673 11.594 6.25488 11.4184 6.43784C11.2427 6.6208 11.0045 6.72359 10.7561 6.72359C10.4127 6.72359 10.1317 7.01627 10.1317 7.374V8.51221L4.76195 12.7073C4.65711 12.7892 4.57967 12.9034 4.54059 13.0337C4.50152 13.1641 4.5028 13.3038 4.54423 13.4333C4.58567 13.5628 4.66518 13.6754 4.77149 13.7553C4.8778 13.8351 5.00553 13.8781 5.13658 13.8781H16.3756C16.5066 13.8781 16.6344 13.8351 16.7407 13.7553C16.847 13.6754 16.9265 13.5628 16.9679 13.4333C17.0094 13.3038 17.0107 13.1641 16.9716 13.0337C16.9326 12.9034 16.855 12.7892 16.7502 12.7073L11.3805 8.51221V7.92684C11.8311 7.78691 12.2263 7.49932 12.5075 7.10681C12.7887 6.71429 12.9409 6.23775 12.9415 5.74798C12.9415 5.14424 12.7113 4.56522 12.3014 4.1383C11.8915 3.7114 11.3357 3.47156 10.7561 3.47156ZM10.7561 9.65042L14.5024 12.5772H7.00975L10.7561 9.65042Z" fill="white"/>
<path d="M33 1H1V33H33V1Z" stroke="white" stroke-width="1.25"/>
<path d="M5.09294 29.0279L29.0279 5.0929" stroke="white" stroke-width="1.25"/>
<path d="M18.5527 20.4966H19.9638L22.2865 27.0652L23.86 22.9817L22.8984 20.4966H24.0972L26.6073 26.9278L28.8301 20.4966H30.1289L26.5698 29.8874L24.4594 24.5052L22.1491 29.8999L18.5527 20.4966Z" fill="white"/>
<path d="M38.224 8.648H49.744V10.88H45.088V26H42.76V10.88H38.224V8.648ZM52.8893 26V7.424H55.0733V18.368L55.0253 17.96C55.3613 17.304 55.8733 16.76 56.5613 16.328C57.2653 15.896 58.0893 15.68 59.0333 15.68C59.9773 15.68 60.7453 15.96 61.3373 16.52C61.9453 17.064 62.2573 17.776 62.2733 18.656V26H60.0173V19.448C60.0013 18.904 59.8413 18.464 59.5373 18.128C59.2493 17.776 58.7933 17.6 58.1693 17.6C57.5933 17.6 57.0733 17.768 56.6093 18.104C56.1453 18.424 55.7773 18.864 55.5053 19.424C55.2493 19.984 55.1213 20.624 55.1213 21.344V26H52.8893ZM70.7629 26.24C69.6269 26.24 68.6509 26.016 67.8349 25.568C67.0189 25.104 66.3869 24.48 65.9389 23.696C65.5069 22.896 65.2909 21.984 65.2909 20.96C65.2909 19.984 65.5389 19.096 66.0349 18.296C66.5309 17.496 67.1949 16.856 68.0269 16.376C68.8589 15.896 69.7869 15.656 70.8109 15.656C72.1229 15.656 73.2109 16.04 74.0749 16.808C74.9389 17.576 75.5229 18.632 75.8269 19.976L67.6429 22.856L67.1149 21.536L73.8349 19.088L73.3549 19.4C73.1629 18.872 72.8429 18.416 72.3949 18.032C71.9469 17.632 71.3629 17.432 70.6429 17.432C70.0349 17.432 69.4909 17.584 69.0109 17.888C68.5309 18.176 68.1549 18.576 67.8829 19.088C67.6109 19.6 67.4749 20.184 67.4749 20.84C67.4749 21.528 67.6189 22.136 67.9069 22.664C68.1949 23.176 68.5869 23.584 69.0829 23.888C69.5949 24.176 70.1709 24.32 70.8109 24.32C71.2429 24.32 71.6589 24.24 72.0589 24.08C72.4749 23.92 72.8589 23.712 73.2109 23.456L74.2429 25.112C73.7469 25.448 73.1869 25.72 72.5629 25.928C71.9549 26.136 71.3549 26.24 70.7629 26.24ZM77.6637 8.744H80.3517L85.0557 21.992L84.6477 21.824L88.0797 12.944L89.1597 16.088L84.5757 26.792L77.6637 8.744ZM85.9917 8.744H88.3197L93.4077 21.8L92.9277 21.704L97.4157 8.744H99.8877L93.0717 26.768L85.9917 8.744ZM104.713 26.24C103.785 26.24 102.937 26.04 102.169 25.64C101.417 25.24 100.817 24.656 100.369 23.888C99.9366 23.104 99.7206 22.152 99.7206 21.032C99.7206 19.928 99.9526 18.976 100.417 18.176C100.881 17.36 101.497 16.736 102.265 16.304C103.049 15.872 103.905 15.656 104.833 15.656C105.761 15.656 106.545 15.872 107.185 16.304C107.825 16.72 108.313 17.216 108.649 17.792L108.505 18.176L108.721 16.064H110.785V26H108.553V23.408L108.793 23.984C108.729 24.144 108.585 24.352 108.361 24.608C108.153 24.848 107.865 25.096 107.497 25.352C107.145 25.608 106.737 25.824 106.273 26C105.809 26.16 105.289 26.24 104.713 26.24ZM105.313 24.392C105.873 24.392 106.377 24.288 106.825 24.08C107.273 23.872 107.641 23.584 107.929 23.216C108.233 22.832 108.441 22.376 108.553 21.848V19.904C108.425 19.424 108.201 19.008 107.881 18.656C107.561 18.288 107.177 18.008 106.729 17.816C106.281 17.608 105.785 17.504 105.241 17.504C104.649 17.504 104.105 17.648 103.609 17.936C103.113 18.224 102.713 18.624 102.409 19.136C102.121 19.648 101.977 20.248 101.977 20.936C101.977 21.576 102.129 22.16 102.433 22.688C102.737 23.216 103.145 23.632 103.657 23.936C104.169 24.24 104.721 24.392 105.313 24.392ZM116.639 16.064L116.855 18.944L116.735 18.56C116.991 17.952 117.359 17.44 117.839 17.024C118.335 16.592 118.847 16.264 119.375 16.04C119.919 15.8 120.391 15.68 120.791 15.68L120.671 17.888C119.919 17.84 119.255 17.984 118.679 18.32C118.119 18.656 117.671 19.104 117.335 19.664C117.015 20.224 116.855 20.824 116.855 21.464V26H114.647V16.064H116.639ZM127.281 26.24C126.369 26.24 125.537 26.024 124.785 25.592C124.049 25.144 123.465 24.52 123.033 23.72C122.601 22.904 122.385 21.968 122.385 20.912C122.385 19.808 122.609 18.864 123.057 18.08C123.521 17.296 124.145 16.696 124.929 16.28C125.713 15.864 126.593 15.656 127.569 15.656C128.353 15.656 129.097 15.824 129.801 16.16C130.521 16.496 131.081 16.96 131.481 17.552L131.385 18.344V7.424H133.593V26H131.361V23.528L131.601 24.152C131.137 24.76 130.537 25.264 129.801 25.664C129.065 26.048 128.225 26.24 127.281 26.24ZM127.977 24.344C128.569 24.344 129.097 24.24 129.561 24.032C130.025 23.808 130.409 23.504 130.713 23.12C131.017 22.736 131.233 22.28 131.361 21.752V19.88C131.233 19.4 131.001 18.984 130.665 18.632C130.345 18.264 129.953 17.976 129.489 17.768C129.041 17.544 128.537 17.432 127.977 17.432C127.369 17.432 126.809 17.584 126.297 17.888C125.801 18.176 125.401 18.576 125.097 19.088C124.793 19.6 124.641 20.192 124.641 20.864C124.641 21.52 124.793 22.112 125.097 22.64C125.401 23.152 125.809 23.568 126.321 23.888C126.833 24.192 127.385 24.344 127.977 24.344ZM139.467 16.064L139.683 18.944L139.563 18.56C139.819 17.952 140.187 17.44 140.667 17.024C141.163 16.592 141.675 16.264 142.203 16.04C142.747 15.8 143.219 15.68 143.619 15.68L143.499 17.888C142.747 17.84 142.083 17.984 141.507 18.32C140.947 18.656 140.499 19.104 140.163 19.664C139.843 20.224 139.683 20.824 139.683 21.464V26H137.475V16.064H139.467ZM145.213 20.936C145.213 19.944 145.445 19.048 145.909 18.248C146.389 17.448 147.045 16.816 147.877 16.352C148.709 15.888 149.653 15.656 150.709 15.656C151.797 15.656 152.749 15.888 153.565 16.352C154.381 16.816 155.013 17.448 155.461 18.248C155.909 19.048 156.133 19.944 156.133 20.936C156.133 21.928 155.909 22.832 155.461 23.648C155.013 24.448 154.373 25.08 153.541 25.544C152.725 26.008 151.773 26.24 150.685 26.24C149.629 26.24 148.685 26.024 147.853 25.592C147.037 25.144 146.389 24.528 145.909 23.744C145.445 22.944 145.213 22.008 145.213 20.936ZM147.445 20.96C147.445 21.6 147.589 22.184 147.877 22.712C148.165 23.224 148.549 23.632 149.029 23.936C149.525 24.24 150.069 24.392 150.661 24.392C151.285 24.392 151.837 24.24 152.317 23.936C152.813 23.632 153.197 23.224 153.469 22.712C153.741 22.184 153.877 21.6 153.877 20.96C153.877 20.32 153.741 19.744 153.469 19.232C153.197 18.704 152.813 18.288 152.317 17.984C151.837 17.664 151.285 17.504 150.661 17.504C150.053 17.504 149.501 17.664 149.005 17.984C148.525 18.304 148.141 18.728 147.853 19.256C147.581 19.768 147.445 20.336 147.445 20.96ZM165.203 26.24C164.291 26.24 163.483 26.04 162.779 25.64C162.091 25.24 161.539 24.736 161.123 24.128L161.387 23.432V26H159.155V7.424H161.363V18.344L161.291 17.504C161.691 16.96 162.259 16.52 162.995 16.184C163.747 15.832 164.579 15.656 165.491 15.656C166.387 15.656 167.203 15.872 167.939 16.304C168.675 16.736 169.259 17.344 169.691 18.128C170.139 18.896 170.363 19.816 170.363 20.888C170.363 22.008 170.123 22.968 169.643 23.768C169.179 24.568 168.555 25.184 167.771 25.616C166.987 26.032 166.131 26.24 165.203 26.24ZM164.747 24.344C165.387 24.344 165.963 24.192 166.475 23.888C166.987 23.584 167.387 23.176 167.675 22.664C167.963 22.136 168.107 21.536 168.107 20.864C168.107 20.224 167.955 19.648 167.651 19.136C167.363 18.608 166.963 18.192 166.451 17.888C165.955 17.584 165.387 17.432 164.747 17.432C164.203 17.432 163.699 17.536 163.235 17.744C162.771 17.952 162.379 18.24 162.059 18.608C161.739 18.96 161.515 19.376 161.387 19.856V21.848C161.515 22.328 161.731 22.76 162.035 23.144C162.339 23.512 162.723 23.808 163.187 24.032C163.651 24.24 164.171 24.344 164.747 24.344ZM177.99 26.24C176.854 26.24 175.878 26.016 175.062 25.568C174.246 25.104 173.614 24.48 173.166 23.696C172.734 22.896 172.518 21.984 172.518 20.96C172.518 19.984 172.766 19.096 173.262 18.296C173.758 17.496 174.422 16.856 175.254 16.376C176.086 15.896 177.014 15.656 178.038 15.656C179.35 15.656 180.438 16.04 181.302 16.808C182.166 17.576 182.75 18.632 183.054 19.976L174.87 22.856L174.342 21.536L181.062 19.088L180.582 19.4C180.39 18.872 180.07 18.416 179.622 18.032C179.174 17.632 178.59 17.432 177.87 17.432C177.262 17.432 176.718 17.584 176.238 17.888C175.758 18.176 175.382 18.576 175.11 19.088C174.838 19.6 174.702 20.184 174.702 20.84C174.702 21.528 174.846 22.136 175.134 22.664C175.422 23.176 175.814 23.584 176.31 23.888C176.822 24.176 177.398 24.32 178.038 24.32C178.47 24.32 178.886 24.24 179.286 24.08C179.702 23.92 180.086 23.712 180.438 23.456L181.47 25.112C180.974 25.448 180.414 25.72 179.79 25.928C179.182 26.136 178.582 26.24 177.99 26.24Z" fill="white"/>
</svg>
