<svg width="50" height="50" viewBox="0 0 50 50" fill="none" xmlns="http://www.w3.org/2000/svg">
<path d="M15.6342 4.70734C14.7648 4.70734 13.931 5.06709 13.3162 5.70745C12.7015 6.34783 12.3561 7.21635 12.3561 8.12197H14.2293C14.2293 7.73385 14.3773 7.36162 14.6407 7.08718C14.9042 6.81273 15.2616 6.65856 15.6342 6.65856C16.0068 6.65856 16.3641 6.81273 16.6276 7.08718C16.891 7.36162 17.039 7.73385 17.039 8.12197C17.039 8.51009 16.891 8.88232 16.6276 9.15676C16.3641 9.43121 16.0068 9.58539 15.6342 9.58539C15.119 9.58539 14.6976 10.0244 14.6976 10.561V12.2683L6.64293 18.561C6.48568 18.6838 6.36951 18.8551 6.3109 19.0505C6.25228 19.2461 6.2542 19.4557 6.31636 19.6499C6.37852 19.8443 6.49778 20.0132 6.65724 20.1329C6.81671 20.2526 7.00831 20.3171 7.20488 20.3171H24.0634C24.2599 20.3171 24.4516 20.2526 24.611 20.1329C24.7705 20.0132 24.8898 19.8443 24.9519 19.6499C25.0141 19.4557 25.0161 19.2461 24.9574 19.0505C24.8989 18.8551 24.7826 18.6838 24.6254 18.561L16.5707 12.2683V11.3903C17.2466 11.1804 17.8395 10.749 18.2613 10.1602C18.683 9.57143 18.9114 8.85663 18.9122 8.12197C18.9122 7.21635 18.5669 6.34783 17.952 5.70745C17.3373 5.06709 16.5036 4.70734 15.6342 4.70734ZM15.6342 13.9756L21.2537 18.3659H10.0146L15.6342 13.9756Z" fill="white"/>
<path d="M49 1H1V49H49V1Z" stroke="white" stroke-width="2"/>
<path d="M7.13941 43.0418L43.0419 7.13934" stroke="white" stroke-width="2"/>
<path d="M27.329 30.2449H29.4457L32.9298 40.0978L35.29 33.9725L33.8476 30.2449H35.6459L39.4109 39.8917L42.7452 30.2449H44.6933L39.3547 44.3311L36.1891 36.2578L32.7237 44.3498L27.329 30.2449Z" fill="white"/>
</svg>
