<svg width="280" height="50" viewBox="0 0 280 50" fill="none" xmlns="http://www.w3.org/2000/svg">
<path d="M15.6342 4.70734C14.7648 4.70734 13.931 5.06709 13.3162 5.70745C12.7015 6.34783 12.3561 7.21635 12.3561 8.12197H14.2293C14.2293 7.73385 14.3773 7.36162 14.6407 7.08718C14.9042 6.81273 15.2616 6.65856 15.6342 6.65856C16.0068 6.65856 16.3641 6.81273 16.6276 7.08718C16.891 7.36162 17.039 7.73385 17.039 8.12197C17.039 8.51009 16.891 8.88232 16.6276 9.15676C16.3641 9.43121 16.0068 9.58539 15.6342 9.58539C15.119 9.58539 14.6976 10.0244 14.6976 10.561V12.2683L6.64293 18.561C6.48568 18.6838 6.36951 18.8551 6.3109 19.0505C6.25228 19.2461 6.2542 19.4557 6.31636 19.6499C6.37852 19.8443 6.49778 20.0132 6.65724 20.1329C6.81671 20.2526 7.00831 20.3171 7.20488 20.3171H24.0634C24.2599 20.3171 24.4516 20.2526 24.611 20.1329C24.7705 20.0132 24.8898 19.8443 24.9519 19.6499C25.0141 19.4557 25.0161 19.2461 24.9574 19.0505C24.8989 18.8551 24.7826 18.6838 24.6254 18.561L16.5707 12.2683V11.3903C17.2466 11.1804 17.8395 10.749 18.2613 10.1602C18.683 9.57143 18.9114 8.85663 18.9122 8.12197C18.9122 7.21635 18.5669 6.34783 17.952 5.70745C17.3373 5.06709 16.5036 4.70734 15.6342 4.70734ZM15.6342 13.9756L21.2537 18.3659H10.0146L15.6342 13.9756Z" fill="white"/>
<path d="M49 1H1V49H49V1Z" stroke="white" stroke-width="2"/>
<path d="M7.1394 43.0418L43.0419 7.13934" stroke="white" stroke-width="2"/>
<path d="M27.329 30.2449H29.4457L32.9298 40.0978L35.29 33.9725L33.8476 30.2449H35.6459L39.4109 39.8917L42.7452 30.2449H44.6933L39.3547 44.3311L36.1891 36.2578L32.7237 44.3498L27.329 30.2449Z" fill="white"/>
<path d="M56.836 12.972H74.116V16.32H67.132V39H63.64V16.32H56.836V12.972ZM78.834 39V11.136H82.11V27.552L82.038 26.94C82.542 25.956 83.31 25.14 84.342 24.492C85.398 23.844 86.634 23.52 88.05 23.52C89.466 23.52 90.618 23.94 91.506 24.78C92.418 25.596 92.886 26.664 92.91 27.984V39H89.526V29.172C89.502 28.356 89.262 27.696 88.806 27.192C88.374 26.664 87.69 26.4 86.754 26.4C85.89 26.4 85.11 26.652 84.414 27.156C83.718 27.636 83.166 28.296 82.758 29.136C82.374 29.976 82.182 30.936 82.182 32.016V39H78.834ZM105.644 39.36C103.94 39.36 102.476 39.024 101.252 38.352C100.028 37.656 99.0804 36.72 98.4084 35.544C97.7604 34.344 97.4364 32.976 97.4364 31.44C97.4364 29.976 97.8084 28.644 98.5524 27.444C99.2964 26.244 100.292 25.284 101.54 24.564C102.788 23.844 104.18 23.484 105.716 23.484C107.684 23.484 109.316 24.06 110.612 25.212C111.908 26.364 112.784 27.948 113.24 29.964L100.964 34.284L100.172 32.304L110.252 28.632L109.532 29.1C109.244 28.308 108.764 27.624 108.092 27.048C107.42 26.448 106.544 26.148 105.464 26.148C104.552 26.148 103.736 26.376 103.016 26.832C102.296 27.264 101.732 27.864 101.324 28.632C100.916 29.4 100.712 30.276 100.712 31.26C100.712 32.292 100.928 33.204 101.36 33.996C101.792 34.764 102.38 35.376 103.124 35.832C103.892 36.264 104.756 36.48 105.716 36.48C106.364 36.48 106.988 36.36 107.588 36.12C108.212 35.88 108.788 35.568 109.316 35.184L110.864 37.668C110.12 38.172 109.28 38.58 108.344 38.892C107.432 39.204 106.532 39.36 105.644 39.36ZM115.996 13.116H120.028L127.084 32.988L126.472 32.736L131.62 19.416L133.24 24.132L126.364 40.188L115.996 13.116ZM128.488 13.116H131.98L139.612 32.7L138.892 32.556L145.624 13.116H149.332L139.108 40.152L128.488 13.116ZM156.569 39.36C155.177 39.36 153.905 39.06 152.753 38.46C151.625 37.86 150.725 36.984 150.053 35.832C149.405 34.656 149.081 33.228 149.081 31.548C149.081 29.892 149.429 28.464 150.125 27.264C150.821 26.04 151.745 25.104 152.897 24.456C154.073 23.808 155.357 23.484 156.749 23.484C158.141 23.484 159.317 23.808 160.277 24.456C161.237 25.08 161.969 25.824 162.473 26.688L162.257 27.264L162.581 24.096H165.677V39H162.329V35.112L162.689 35.976C162.593 36.216 162.377 36.528 162.041 36.912C161.729 37.272 161.297 37.644 160.745 38.028C160.217 38.412 159.605 38.736 158.909 39C158.213 39.24 157.433 39.36 156.569 39.36ZM157.469 36.588C158.309 36.588 159.065 36.432 159.737 36.12C160.409 35.808 160.961 35.376 161.393 34.824C161.849 34.248 162.161 33.564 162.329 32.772V29.856C162.137 29.136 161.801 28.512 161.321 27.984C160.841 27.432 160.265 27.012 159.593 26.724C158.921 26.412 158.177 26.256 157.361 26.256C156.473 26.256 155.657 26.472 154.913 26.904C154.169 27.336 153.569 27.936 153.113 28.704C152.681 29.472 152.465 30.372 152.465 31.404C152.465 32.364 152.693 33.24 153.149 34.032C153.605 34.824 154.217 35.448 154.985 35.904C155.753 36.36 156.581 36.588 157.469 36.588ZM174.459 24.096L174.783 28.416L174.603 27.84C174.987 26.928 175.539 26.16 176.259 25.536C177.003 24.888 177.771 24.396 178.563 24.06C179.379 23.7 180.087 23.52 180.687 23.52L180.507 26.832C179.379 26.76 178.383 26.976 177.519 27.48C176.679 27.984 176.007 28.656 175.503 29.496C175.023 30.336 174.783 31.236 174.783 32.196V39H171.471V24.096H174.459ZM190.421 39.36C189.053 39.36 187.805 39.036 186.677 38.388C185.573 37.716 184.697 36.78 184.049 35.58C183.401 34.356 183.077 32.952 183.077 31.368C183.077 29.712 183.413 28.296 184.085 27.12C184.781 25.944 185.717 25.044 186.893 24.42C188.069 23.796 189.389 23.484 190.853 23.484C192.029 23.484 193.145 23.736 194.201 24.24C195.281 24.744 196.121 25.44 196.721 26.328L196.577 27.516V11.136H199.889V39H196.541V35.292L196.901 36.228C196.205 37.14 195.305 37.896 194.201 38.496C193.097 39.072 191.837 39.36 190.421 39.36ZM191.465 36.516C192.353 36.516 193.145 36.36 193.841 36.048C194.537 35.712 195.113 35.256 195.569 34.68C196.025 34.104 196.349 33.42 196.541 32.628V29.82C196.349 29.1 196.001 28.476 195.497 27.948C195.017 27.396 194.429 26.964 193.733 26.652C193.061 26.316 192.305 26.148 191.465 26.148C190.553 26.148 189.713 26.376 188.945 26.832C188.201 27.264 187.601 27.864 187.145 28.632C186.689 29.4 186.461 30.288 186.461 31.296C186.461 32.28 186.689 33.168 187.145 33.96C187.601 34.728 188.213 35.352 188.981 35.832C189.749 36.288 190.577 36.516 191.465 36.516ZM208.701 24.096L209.025 28.416L208.845 27.84C209.229 26.928 209.781 26.16 210.501 25.536C211.245 24.888 212.013 24.396 212.805 24.06C213.621 23.7 214.329 23.52 214.929 23.52L214.749 26.832C213.621 26.76 212.625 26.976 211.761 27.48C210.921 27.984 210.249 28.656 209.745 29.496C209.265 30.336 209.025 31.236 209.025 32.196V39H205.713V24.096H208.701ZM217.319 31.404C217.319 29.916 217.667 28.572 218.363 27.372C219.083 26.172 220.067 25.224 221.315 24.528C222.563 23.832 223.979 23.484 225.563 23.484C227.195 23.484 228.623 23.832 229.847 24.528C231.071 25.224 232.019 26.172 232.691 27.372C233.363 28.572 233.699 29.916 233.699 31.404C233.699 32.892 233.363 34.248 232.691 35.472C232.019 36.672 231.059 37.62 229.811 38.316C228.587 39.012 227.159 39.36 225.527 39.36C223.943 39.36 222.527 39.036 221.279 38.388C220.055 37.716 219.083 36.792 218.363 35.616C217.667 34.416 217.319 33.012 217.319 31.404ZM220.667 31.44C220.667 32.4 220.883 33.276 221.315 34.068C221.747 34.836 222.323 35.448 223.043 35.904C223.787 36.36 224.603 36.588 225.491 36.588C226.427 36.588 227.255 36.36 227.975 35.904C228.719 35.448 229.295 34.836 229.703 34.068C230.111 33.276 230.315 32.4 230.315 31.44C230.315 30.48 230.111 29.616 229.703 28.848C229.295 28.056 228.719 27.432 227.975 26.976C227.255 26.496 226.427 26.256 225.491 26.256C224.579 26.256 223.751 26.496 223.007 26.976C222.287 27.456 221.711 28.092 221.279 28.884C220.871 29.652 220.667 30.504 220.667 31.44ZM247.304 39.36C245.936 39.36 244.724 39.06 243.668 38.46C242.636 37.86 241.808 37.104 241.184 36.192L241.58 35.148V39H238.232V11.136H241.544V27.516L241.436 26.256C242.036 25.44 242.888 24.78 243.992 24.276C245.12 23.748 246.368 23.484 247.736 23.484C249.08 23.484 250.304 23.808 251.408 24.456C252.512 25.104 253.388 26.016 254.036 27.192C254.708 28.344 255.044 29.724 255.044 31.332C255.044 33.012 254.684 34.452 253.964 35.652C253.268 36.852 252.332 37.776 251.156 38.424C249.98 39.048 248.696 39.36 247.304 39.36ZM246.62 36.516C247.58 36.516 248.444 36.288 249.212 35.832C249.98 35.376 250.58 34.764 251.012 33.996C251.444 33.204 251.66 32.304 251.66 31.296C251.66 30.336 251.432 29.472 250.976 28.704C250.544 27.912 249.944 27.288 249.176 26.832C248.432 26.376 247.58 26.148 246.62 26.148C245.804 26.148 245.048 26.304 244.352 26.616C243.656 26.928 243.068 27.36 242.588 27.912C242.108 28.44 241.772 29.064 241.58 29.784V32.772C241.772 33.492 242.096 34.14 242.552 34.716C243.008 35.268 243.584 35.712 244.28 36.048C244.976 36.36 245.756 36.516 246.62 36.516ZM266.484 39.36C264.78 39.36 263.316 39.024 262.092 38.352C260.868 37.656 259.92 36.72 259.248 35.544C258.6 34.344 258.276 32.976 258.276 31.44C258.276 29.976 258.648 28.644 259.392 27.444C260.136 26.244 261.132 25.284 262.38 24.564C263.628 23.844 265.02 23.484 266.556 23.484C268.524 23.484 270.156 24.06 271.452 25.212C272.748 26.364 273.624 27.948 274.08 29.964L261.804 34.284L261.012 32.304L271.092 28.632L270.372 29.1C270.084 28.308 269.604 27.624 268.932 27.048C268.26 26.448 267.384 26.148 266.304 26.148C265.392 26.148 264.576 26.376 263.856 26.832C263.136 27.264 262.572 27.864 262.164 28.632C261.756 29.4 261.552 30.276 261.552 31.26C261.552 32.292 261.768 33.204 262.2 33.996C262.632 34.764 263.22 35.376 263.964 35.832C264.732 36.264 265.596 36.48 266.556 36.48C267.204 36.48 267.828 36.36 268.428 36.12C269.052 35.88 269.628 35.568 270.156 35.184L271.704 37.668C270.96 38.172 270.12 38.58 269.184 38.892C268.272 39.204 267.372 39.36 266.484 39.36Z" fill="white"/>
</svg>
