<svg width="32" height="32" viewBox="0 0 32 32" fill="none" xmlns="http://www.w3.org/2000/svg">
<path d="M10 3C9.44305 3 8.9089 3.23047 8.51508 3.6407C8.12125 4.05094 7.9 4.60734 7.9 5.1875H9.1C9.1 4.93886 9.19482 4.7004 9.3636 4.52459C9.53239 4.34877 9.76131 4.25 10 4.25C10.2387 4.25 10.4676 4.34877 10.6364 4.52459C10.8052 4.7004 10.9 4.93886 10.9 5.1875C10.9 5.43614 10.8052 5.6746 10.6364 5.85041C10.4676 6.02623 10.2387 6.125 10 6.125C9.67 6.125 9.4 6.40625 9.4 6.75V7.84375L4.24 11.875C4.13926 11.9537 4.06484 12.0634 4.02729 12.1886C3.98974 12.3139 3.99097 12.4482 4.03079 12.5726C4.07061 12.6971 4.14701 12.8053 4.24917 12.882C4.35133 12.9587 4.47407 13 4.6 13H15.4C15.5259 13 15.6487 12.9587 15.7508 12.882C15.853 12.8053 15.9294 12.6971 15.9692 12.5726C16.009 12.4482 16.0103 12.3139 15.9727 12.1886C15.9352 12.0634 15.8607 11.9537 15.76 11.875L10.6 7.84375V7.28125C11.033 7.14678 11.4128 6.87043 11.683 6.49325C11.9532 6.11606 12.0995 5.65814 12.1 5.1875C12.1 4.60734 11.8788 4.05094 11.4849 3.6407C11.0911 3.23047 10.557 3 10 3V3ZM10 8.9375L13.6 11.75H6.4L10 8.9375Z" fill="white"/>
<rect x="0.625" y="0.625" width="30.75" height="30.75" stroke="white" stroke-width="1.25"/>
<line x1="4.55806" y1="27.5581" x2="27.5581" y2="4.55806" stroke="white" stroke-width="1.25"/>
<path d="M17.492 19.36H18.848L21.08 25.672L22.592 21.748L21.668 19.36H22.82L25.232 25.54L27.368 19.36H28.616L25.196 28.384L23.168 23.212L20.948 28.396L17.492 19.36Z" fill="white"/>
</svg>
